<svg xmlns="http://www.w3.org/2000/svg" viewBox="0 0 192 192" fill="none">
  <rect width="192" height="192" rx="40" fill="#0a0a0a"/>
  <rect x="8" y="8" width="176" height="176" rx="36" fill="#131316" stroke="#D97706" stroke-width="3"/>
  <!-- Hazard stripe top -->
  <defs>
    <clipPath id="top-clip">
      <rect x="10" y="10" width="172" height="12" rx="2"/>
    </clipPath>
  </defs>
  <g clip-path="url(#top-clip)">
    <rect x="10" y="10" width="172" height="12" fill="#D97706" opacity="0.3"/>
    <line x1="10" y1="22" x2="22" y2="10" stroke="#D97706" stroke-width="3" opacity="0.6"/>
    <line x1="22" y1="22" x2="34" y2="10" stroke="#D97706" stroke-width="3" opacity="0.6"/>
    <line x1="34" y1="22" x2="46" y2="10" stroke="#D97706" stroke-width="3" opacity="0.6"/>
    <line x1="46" y1="22" x2="58" y2="10" stroke="#D97706" stroke-width="3" opacity="0.6"/>
    <line x1="58" y1="22" x2="70" y2="10" stroke="#D97706" stroke-width="3" opacity="0.6"/>
    <line x1="70" y1="22" x2="82" y2="10" stroke="#D97706" stroke-width="3" opacity="0.6"/>
    <line x1="82" y1="22" x2="94" y2="10" stroke="#D97706" stroke-width="3" opacity="0.6"/>
    <line x1="94" y1="22" x2="106" y2="10" stroke="#D97706" stroke-width="3" opacity="0.6"/>
    <line x1="106" y1="22" x2="118" y2="10" stroke="#D97706" stroke-width="3" opacity="0.6"/>
    <line x1="118" y1="22" x2="130" y2="10" stroke="#D97706" stroke-width="3" opacity="0.6"/>
    <line x1="130" y1="22" x2="142" y2="10" stroke="#D97706" stroke-width="3" opacity="0.6"/>
    <line x1="142" y1="22" x2="154" y2="10" stroke="#D97706" stroke-width="3" opacity="0.6"/>
    <line x1="154" y1="22" x2="166" y2="10" stroke="#D97706" stroke-width="3" opacity="0.6"/>
    <line x1="166" y1="22" x2="178" y2="10" stroke="#D97706" stroke-width="3" opacity="0.6"/>
  </g>
  <text x="96" y="95" font-family="'Barlow Condensed', Arial, sans-serif" font-weight="800" font-size="56" fill="#D97706" text-anchor="middle" letter-spacing="4">RPM</text>
  <text x="96" y="145" font-family="'Barlow Condensed', Arial, sans-serif" font-weight="800" font-size="56" fill="#E5E5E5" text-anchor="middle" letter-spacing="4">PRO</text>
</svg>
