<svg xmlns="http://www.w3.org/2000/svg" viewBox="0 0 512 512" fill="none">
  <rect width="512" height="512" rx="96" fill="#0a0a0a"/>
  <rect x="16" y="16" width="480" height="480" rx="80" fill="#131316" stroke="#D97706" stroke-width="4"/>
  <!-- Hazard stripe top -->
  <defs>
    <clipPath id="top-clip">
      <rect x="20" y="20" width="472" height="24" rx="4"/>
    </clipPath>
  </defs>
  <g clip-path="url(#top-clip)">
    <rect x="20" y="20" width="472" height="24" fill="#D97706" opacity="0.3"/>
    <line x1="20" y1="44" x2="44" y2="20" stroke="#D97706" stroke-width="4" opacity="0.6"/>
    <line x1="44" y1="44" x2="68" y2="20" stroke="#D97706" stroke-width="4" opacity="0.6"/>
    <line x1="68" y1="44" x2="92" y2="20" stroke="#D97706" stroke-width="4" opacity="0.6"/>
    <line x1="92" y1="44" x2="116" y2="20" stroke="#D97706" stroke-width="4" opacity="0.6"/>
    <line x1="116" y1="44" x2="140" y2="20" stroke="#D97706" stroke-width="4" opacity="0.6"/>
    <line x1="140" y1="44" x2="164" y2="20" stroke="#D97706" stroke-width="4" opacity="0.6"/>
    <line x1="164" y1="44" x2="188" y2="20" stroke="#D97706" stroke-width="4" opacity="0.6"/>
    <line x1="188" y1="44" x2="212" y2="20" stroke="#D97706" stroke-width="4" opacity="0.6"/>
    <line x1="212" y1="44" x2="236" y2="20" stroke="#D97706" stroke-width="4" opacity="0.6"/>
    <line x1="236" y1="44" x2="260" y2="20" stroke="#D97706" stroke-width="4" opacity="0.6"/>
    <line x1="260" y1="44" x2="284" y2="20" stroke="#D97706" stroke-width="4" opacity="0.6"/>
    <line x1="284" y1="44" x2="308" y2="20" stroke="#D97706" stroke-width="4" opacity="0.6"/>
    <line x1="308" y1="44" x2="332" y2="20" stroke="#D97706" stroke-width="4" opacity="0.6"/>
    <line x1="332" y1="44" x2="356" y2="20" stroke="#D97706" stroke-width="4" opacity="0.6"/>
    <line x1="356" y1="44" x2="380" y2="20" stroke="#D97706" stroke-width="4" opacity="0.6"/>
    <line x1="380" y1="44" x2="404" y2="20" stroke="#D97706" stroke-width="4" opacity="0.6"/>
    <line x1="404" y1="44" x2="428" y2="20" stroke="#D97706" stroke-width="4" opacity="0.6"/>
    <line x1="428" y1="44" x2="452" y2="20" stroke="#D97706" stroke-width="4" opacity="0.6"/>
    <line x1="452" y1="44" x2="476" y2="20" stroke="#D97706" stroke-width="4" opacity="0.6"/>
    <line x1="476" y1="44" x2="500" y2="20" stroke="#D97706" stroke-width="4" opacity="0.6"/>
  </g>
  <text x="256" y="248" font-family="'Barlow Condensed', Arial, sans-serif" font-weight="800" font-size="148" fill="#D97706" text-anchor="middle" letter-spacing="8">RPM</text>
  <text x="256" y="384" font-family="'Barlow Condensed', Arial, sans-serif" font-weight="800" font-size="148" fill="#E5E5E5" text-anchor="middle" letter-spacing="8">PRO</text>
</svg>
